<mxfile host="app.diagrams.net" modified="2024-02-19T13:28:42.033Z" agent="Mozilla/5.0 (Macintosh; Intel Mac OS X 10_15_7) AppleWebKit/537.36 (KHTML, like Gecko) Chrome/121.0.0.0 Safari/537.36" etag="0IizYoh-Pw8EkSKGuLha" version="23.1.1" type="github">
  <diagram id="C5RBs43oDa-KdzZeNtuy" name="Page-1">
    <mxGraphModel dx="2901" dy="1057" grid="1" gridSize="10" guides="1" tooltips="1" connect="1" arrows="1" fold="1" page="1" pageScale="1" pageWidth="827" pageHeight="1169" math="0" shadow="0">
      <root>
        <mxCell id="WIyWlLk6GJQsqaUBKTNV-0" />
        <mxCell id="WIyWlLk6GJQsqaUBKTNV-1" parent="WIyWlLk6GJQsqaUBKTNV-0" />
        <mxCell id="hoPLY2x4oObrtYvGcOqT-13" style="edgeStyle=orthogonalEdgeStyle;shape=connector;curved=0;rounded=1;orthogonalLoop=1;jettySize=auto;html=1;labelBackgroundColor=default;strokeColor=default;align=center;verticalAlign=middle;fontFamily=Helvetica;fontSize=11;fontColor=default;endArrow=classic;" edge="1" parent="WIyWlLk6GJQsqaUBKTNV-1" source="hoPLY2x4oObrtYvGcOqT-0" target="hoPLY2x4oObrtYvGcOqT-3">
          <mxGeometry relative="1" as="geometry" />
        </mxCell>
        <mxCell id="hoPLY2x4oObrtYvGcOqT-0" value="BFF层 xyf-api-gateway" style="rounded=0;whiteSpace=wrap;html=1;fillColor=#d5e8d4;strokeColor=#82b366;" vertex="1" parent="WIyWlLk6GJQsqaUBKTNV-1">
          <mxGeometry x="-290" y="190" width="740" height="60" as="geometry" />
        </mxCell>
        <mxCell id="hoPLY2x4oObrtYvGcOqT-9" style="edgeStyle=orthogonalEdgeStyle;rounded=1;orthogonalLoop=1;jettySize=auto;html=1;entryX=0.5;entryY=0;entryDx=0;entryDy=0;curved=0;" edge="1" parent="WIyWlLk6GJQsqaUBKTNV-1" source="hoPLY2x4oObrtYvGcOqT-1" target="hoPLY2x4oObrtYvGcOqT-5">
          <mxGeometry relative="1" as="geometry" />
        </mxCell>
        <mxCell id="hoPLY2x4oObrtYvGcOqT-10" style="edgeStyle=orthogonalEdgeStyle;shape=connector;curved=0;rounded=1;orthogonalLoop=1;jettySize=auto;html=1;labelBackgroundColor=default;strokeColor=default;align=center;verticalAlign=middle;fontFamily=Helvetica;fontSize=11;fontColor=default;endArrow=classic;" edge="1" parent="WIyWlLk6GJQsqaUBKTNV-1" source="hoPLY2x4oObrtYvGcOqT-1" target="hoPLY2x4oObrtYvGcOqT-6">
          <mxGeometry relative="1" as="geometry" />
        </mxCell>
        <mxCell id="hoPLY2x4oObrtYvGcOqT-1" value="贷前" style="rounded=0;whiteSpace=wrap;html=1;fillColor=#008a00;strokeColor=#005700;fontColor=#ffffff;" vertex="1" parent="WIyWlLk6GJQsqaUBKTNV-1">
          <mxGeometry x="-100" y="310" width="120" height="60" as="geometry" />
        </mxCell>
        <mxCell id="hoPLY2x4oObrtYvGcOqT-18" style="edgeStyle=orthogonalEdgeStyle;shape=connector;curved=0;rounded=1;orthogonalLoop=1;jettySize=auto;html=1;entryX=0.5;entryY=0;entryDx=0;entryDy=0;labelBackgroundColor=default;strokeColor=default;align=center;verticalAlign=middle;fontFamily=Helvetica;fontSize=11;fontColor=default;endArrow=classic;" edge="1" parent="WIyWlLk6GJQsqaUBKTNV-1" source="hoPLY2x4oObrtYvGcOqT-2" target="hoPLY2x4oObrtYvGcOqT-7">
          <mxGeometry relative="1" as="geometry" />
        </mxCell>
        <mxCell id="hoPLY2x4oObrtYvGcOqT-2" value="贷中" style="rounded=0;whiteSpace=wrap;html=1;fillColor=#fff2cc;strokeColor=#d6b656;" vertex="1" parent="WIyWlLk6GJQsqaUBKTNV-1">
          <mxGeometry x="110" y="310" width="120" height="60" as="geometry" />
        </mxCell>
        <mxCell id="hoPLY2x4oObrtYvGcOqT-3" value="撞库" style="rounded=0;whiteSpace=wrap;html=1;fillColor=#fff2cc;strokeColor=#d6b656;" vertex="1" parent="WIyWlLk6GJQsqaUBKTNV-1">
          <mxGeometry x="-290" y="310" width="120" height="60" as="geometry" />
        </mxCell>
        <mxCell id="hoPLY2x4oObrtYvGcOqT-19" style="edgeStyle=orthogonalEdgeStyle;shape=connector;curved=0;rounded=1;orthogonalLoop=1;jettySize=auto;html=1;entryX=0.5;entryY=0;entryDx=0;entryDy=0;labelBackgroundColor=default;strokeColor=default;align=center;verticalAlign=middle;fontFamily=Helvetica;fontSize=11;fontColor=default;endArrow=classic;" edge="1" parent="WIyWlLk6GJQsqaUBKTNV-1" source="hoPLY2x4oObrtYvGcOqT-4" target="hoPLY2x4oObrtYvGcOqT-7">
          <mxGeometry relative="1" as="geometry" />
        </mxCell>
        <mxCell id="hoPLY2x4oObrtYvGcOqT-4" value="贷后" style="rounded=0;whiteSpace=wrap;html=1;fillColor=#fff2cc;strokeColor=#d6b656;" vertex="1" parent="WIyWlLk6GJQsqaUBKTNV-1">
          <mxGeometry x="330" y="310" width="120" height="60" as="geometry" />
        </mxCell>
        <mxCell id="hoPLY2x4oObrtYvGcOqT-14" style="edgeStyle=orthogonalEdgeStyle;shape=connector;curved=0;rounded=1;orthogonalLoop=1;jettySize=auto;html=1;labelBackgroundColor=default;strokeColor=default;align=center;verticalAlign=middle;fontFamily=Helvetica;fontSize=11;fontColor=default;endArrow=classic;" edge="1" parent="WIyWlLk6GJQsqaUBKTNV-1" source="hoPLY2x4oObrtYvGcOqT-5" target="hoPLY2x4oObrtYvGcOqT-8">
          <mxGeometry relative="1" as="geometry">
            <Array as="points">
              <mxPoint x="-190" y="640" />
              <mxPoint x="-190" y="640" />
            </Array>
          </mxGeometry>
        </mxCell>
        <mxCell id="hoPLY2x4oObrtYvGcOqT-15" value="逐渐灰度切流" style="edgeLabel;html=1;align=center;verticalAlign=middle;resizable=0;points=[];fontSize=12;fontFamily=Helvetica;fontColor=default;" vertex="1" connectable="0" parent="hoPLY2x4oObrtYvGcOqT-14">
          <mxGeometry x="-0.08" relative="1" as="geometry">
            <mxPoint as="offset" />
          </mxGeometry>
        </mxCell>
        <mxCell id="hoPLY2x4oObrtYvGcOqT-16" style="edgeStyle=orthogonalEdgeStyle;shape=connector;curved=0;rounded=1;orthogonalLoop=1;jettySize=auto;html=1;entryX=0.5;entryY=0;entryDx=0;entryDy=0;labelBackgroundColor=default;strokeColor=default;align=center;verticalAlign=middle;fontFamily=Helvetica;fontSize=11;fontColor=default;endArrow=classic;exitX=0.5;exitY=1;exitDx=0;exitDy=0;" edge="1" parent="WIyWlLk6GJQsqaUBKTNV-1" source="hoPLY2x4oObrtYvGcOqT-5" target="hoPLY2x4oObrtYvGcOqT-7">
          <mxGeometry relative="1" as="geometry">
            <Array as="points">
              <mxPoint x="-190" y="550" />
              <mxPoint x="240" y="550" />
            </Array>
          </mxGeometry>
        </mxCell>
        <mxCell id="hoPLY2x4oObrtYvGcOqT-17" value="切到新系统前部分流量" style="edgeLabel;html=1;align=center;verticalAlign=middle;resizable=0;points=[];fontSize=11;fontFamily=Helvetica;fontColor=default;" vertex="1" connectable="0" parent="hoPLY2x4oObrtYvGcOqT-16">
          <mxGeometry x="-0.1439" y="-1" relative="1" as="geometry">
            <mxPoint x="-89" as="offset" />
          </mxGeometry>
        </mxCell>
        <mxCell id="hoPLY2x4oObrtYvGcOqT-5" value="3家支持二次给额渠道" style="rounded=0;whiteSpace=wrap;html=1;" vertex="1" parent="WIyWlLk6GJQsqaUBKTNV-1">
          <mxGeometry x="-250" y="450" width="120" height="60" as="geometry" />
        </mxCell>
        <mxCell id="hoPLY2x4oObrtYvGcOqT-25" style="edgeStyle=orthogonalEdgeStyle;shape=connector;curved=0;rounded=1;orthogonalLoop=1;jettySize=auto;html=1;entryX=0.25;entryY=0;entryDx=0;entryDy=0;labelBackgroundColor=default;strokeColor=default;align=center;verticalAlign=middle;fontFamily=Helvetica;fontSize=11;fontColor=default;endArrow=classic;" edge="1" parent="WIyWlLk6GJQsqaUBKTNV-1" source="hoPLY2x4oObrtYvGcOqT-6" target="hoPLY2x4oObrtYvGcOqT-7">
          <mxGeometry relative="1" as="geometry">
            <Array as="points">
              <mxPoint x="70" y="570" />
              <mxPoint x="170" y="570" />
            </Array>
          </mxGeometry>
        </mxCell>
        <mxCell id="hoPLY2x4oObrtYvGcOqT-26" style="edgeStyle=orthogonalEdgeStyle;shape=connector;curved=0;rounded=1;orthogonalLoop=1;jettySize=auto;html=1;entryX=0.75;entryY=0;entryDx=0;entryDy=0;labelBackgroundColor=default;strokeColor=default;align=center;verticalAlign=middle;fontFamily=Helvetica;fontSize=11;fontColor=default;endArrow=classic;" edge="1" parent="WIyWlLk6GJQsqaUBKTNV-1" source="hoPLY2x4oObrtYvGcOqT-6" target="hoPLY2x4oObrtYvGcOqT-8">
          <mxGeometry relative="1" as="geometry" />
        </mxCell>
        <mxCell id="hoPLY2x4oObrtYvGcOqT-27" value="后续逐渐切流" style="edgeLabel;html=1;align=center;verticalAlign=middle;resizable=0;points=[];fontSize=11;fontFamily=Helvetica;fontColor=default;" vertex="1" connectable="0" parent="hoPLY2x4oObrtYvGcOqT-26">
          <mxGeometry x="0.2393" relative="1" as="geometry">
            <mxPoint x="34" as="offset" />
          </mxGeometry>
        </mxCell>
        <mxCell id="hoPLY2x4oObrtYvGcOqT-6" value="暂不支持二次给额渠道" style="rounded=0;whiteSpace=wrap;html=1;" vertex="1" parent="WIyWlLk6GJQsqaUBKTNV-1">
          <mxGeometry x="10" y="450" width="120" height="60" as="geometry" />
        </mxCell>
        <mxCell id="hoPLY2x4oObrtYvGcOqT-7" value="xyf-credit-system" style="rounded=0;whiteSpace=wrap;html=1;fillColor=#e1d5e7;strokeColor=#9673a6;" vertex="1" parent="WIyWlLk6GJQsqaUBKTNV-1">
          <mxGeometry x="100" y="600" width="280" height="60" as="geometry" />
        </mxCell>
        <mxCell id="hoPLY2x4oObrtYvGcOqT-22" style="edgeStyle=orthogonalEdgeStyle;shape=connector;curved=0;rounded=1;orthogonalLoop=1;jettySize=auto;html=1;labelBackgroundColor=default;strokeColor=default;align=center;verticalAlign=middle;fontFamily=Helvetica;fontSize=11;fontColor=default;endArrow=classic;" edge="1" parent="WIyWlLk6GJQsqaUBKTNV-1" source="hoPLY2x4oObrtYvGcOqT-8" target="hoPLY2x4oObrtYvGcOqT-21">
          <mxGeometry relative="1" as="geometry" />
        </mxCell>
        <mxCell id="hoPLY2x4oObrtYvGcOqT-23" style="edgeStyle=orthogonalEdgeStyle;shape=connector;curved=0;rounded=1;orthogonalLoop=1;jettySize=auto;html=1;labelBackgroundColor=default;strokeColor=#FF3333;align=center;verticalAlign=middle;fontFamily=Helvetica;fontSize=11;fontColor=default;endArrow=classic;dashed=1;" edge="1" parent="WIyWlLk6GJQsqaUBKTNV-1" source="hoPLY2x4oObrtYvGcOqT-8" target="hoPLY2x4oObrtYvGcOqT-11">
          <mxGeometry relative="1" as="geometry" />
        </mxCell>
        <mxCell id="hoPLY2x4oObrtYvGcOqT-24" style="edgeStyle=orthogonalEdgeStyle;shape=connector;curved=0;rounded=1;orthogonalLoop=1;jettySize=auto;html=1;entryX=0.5;entryY=0;entryDx=0;entryDy=0;labelBackgroundColor=default;strokeColor=#FF3333;align=center;verticalAlign=middle;fontFamily=Helvetica;fontSize=11;fontColor=default;endArrow=classic;dashed=1;" edge="1" parent="WIyWlLk6GJQsqaUBKTNV-1" source="hoPLY2x4oObrtYvGcOqT-8" target="hoPLY2x4oObrtYvGcOqT-20">
          <mxGeometry relative="1" as="geometry" />
        </mxCell>
        <mxCell id="hoPLY2x4oObrtYvGcOqT-8" value="openplatformcore" style="rounded=0;whiteSpace=wrap;html=1;fillColor=#e1d5e7;strokeColor=#9673a6;" vertex="1" parent="WIyWlLk6GJQsqaUBKTNV-1">
          <mxGeometry x="-320" y="680" width="340" height="60" as="geometry" />
        </mxCell>
        <mxCell id="hoPLY2x4oObrtYvGcOqT-11" value="借款引擎" style="rounded=0;whiteSpace=wrap;html=1;fillColor=#e1d5e7;strokeColor=#9673a6;" vertex="1" parent="WIyWlLk6GJQsqaUBKTNV-1">
          <mxGeometry x="-210" y="840" width="120" height="60" as="geometry" />
        </mxCell>
        <mxCell id="hoPLY2x4oObrtYvGcOqT-20" value="还款引擎" style="rounded=0;whiteSpace=wrap;html=1;fillColor=#e1d5e7;strokeColor=#9673a6;" vertex="1" parent="WIyWlLk6GJQsqaUBKTNV-1">
          <mxGeometry x="-20" y="840" width="120" height="60" as="geometry" />
        </mxCell>
        <mxCell id="hoPLY2x4oObrtYvGcOqT-21" value="风控二次给额新接口" style="rounded=0;whiteSpace=wrap;html=1;fillColor=#e1d5e7;strokeColor=#9673a6;" vertex="1" parent="WIyWlLk6GJQsqaUBKTNV-1">
          <mxGeometry x="-390" y="840" width="120" height="60" as="geometry" />
        </mxCell>
      </root>
    </mxGraphModel>
  </diagram>
</mxfile>
